<mxfile host="app.diagrams.net" modified="2024-06-19T19:55:37.319Z" agent="Mozilla/5.0 (Windows NT 10.0; Win64; x64) AppleWebKit/537.36 (KHTML, like Gecko) Chrome/126.0.0.0 Safari/537.36" etag="qmbHGZ4Q-fUCcIQC5mlD" version="24.5.5" type="github">
  <diagram name="Página-1" id="_WE28FnadgoybFpJPaSw">
    <mxGraphModel dx="772" dy="317" grid="1" gridSize="10" guides="1" tooltips="1" connect="1" arrows="1" fold="1" page="1" pageScale="1" pageWidth="827" pageHeight="1169" math="0" shadow="0">
      <root>
        <mxCell id="0" />
        <mxCell id="1" parent="0" />
        <mxCell id="upnxExd1PIan7JR3uo-e-1" value="&lt;div&gt;1 Leer Excel (Producción {mes})&lt;/div&gt;&lt;div&gt;2. Extraer columnas (medico, sucursal, costo, concepto)&lt;/div&gt;&lt;div&gt;3. Guardarlos en json&lt;/div&gt;&lt;div&gt;4. Agrupas por medico&lt;/div&gt;&lt;div&gt;5. Agruparlos por sucursal&lt;/div&gt;&lt;div&gt;6. Asignarle el precio&lt;/div&gt;&lt;div&gt;7. Organizar.&lt;/div&gt;&lt;div&gt;&amp;nbsp; &amp;nbsp; Sucursal - Rango de Fechas - Doctores - Servicios - Costo&lt;/div&gt;&lt;div&gt;8. Calcular costo&lt;/div&gt;&lt;div&gt;&amp;nbsp; &amp;nbsp; &amp;nbsp;Calcular cuanta producción tiene un doctor en una sucursal&lt;/div&gt;&lt;div&gt;&amp;nbsp; &amp;nbsp; &amp;nbsp;en un/todos servicios específicos.&lt;/div&gt;&lt;div&gt;9. Editar los porcentajes de procedimientos.&lt;/div&gt;&lt;div&gt;10. Calcular la suma de todos los procedimientos (pvp) y multiplicarlos&lt;/div&gt;&lt;div&gt;11. Escribir Excel con data&lt;/div&gt;" style="text;html=1;align=left;verticalAlign=middle;resizable=0;points=[];autosize=1;strokeColor=none;fillColor=none;" parent="1" vertex="1">
          <mxGeometry x="14" y="30" width="400" height="210" as="geometry" />
        </mxCell>
        <mxCell id="xyFU0oS-6VmlLACNLTeM-1" value="Inicio" style="strokeWidth=2;html=1;shape=mxgraph.flowchart.start_1;whiteSpace=wrap;" vertex="1" parent="1">
          <mxGeometry x="490" y="30" width="100" height="40" as="geometry" />
        </mxCell>
        <mxCell id="xyFU0oS-6VmlLACNLTeM-2" value="Leer Excel" style="shape=parallelogram;html=1;strokeWidth=2;perimeter=parallelogramPerimeter;whiteSpace=wrap;rounded=1;arcSize=12;size=0.23;" vertex="1" parent="1">
          <mxGeometry x="480" y="105" width="100" height="60" as="geometry" />
        </mxCell>
        <mxCell id="xyFU0oS-6VmlLACNLTeM-3" style="edgeStyle=orthogonalEdgeStyle;rounded=0;orthogonalLoop=1;jettySize=auto;html=1;exitX=0.5;exitY=1;exitDx=0;exitDy=0;exitPerimeter=0;entryX=0.618;entryY=0.013;entryDx=0;entryDy=0;entryPerimeter=0;" edge="1" parent="1" source="xyFU0oS-6VmlLACNLTeM-1" target="xyFU0oS-6VmlLACNLTeM-2">
          <mxGeometry relative="1" as="geometry" />
        </mxCell>
        <mxCell id="xyFU0oS-6VmlLACNLTeM-4" value="" style="strokeWidth=2;html=1;shape=mxgraph.flowchart.annotation_2;align=left;labelPosition=right;pointerEvents=1;" vertex="1" parent="1">
          <mxGeometry x="590" y="85" width="50" height="100" as="geometry" />
        </mxCell>
        <mxCell id="xyFU0oS-6VmlLACNLTeM-6" style="edgeStyle=orthogonalEdgeStyle;rounded=0;orthogonalLoop=1;jettySize=auto;html=1;exitX=1;exitY=0.5;exitDx=0;exitDy=0;entryX=0;entryY=0.5;entryDx=0;entryDy=0;entryPerimeter=0;" edge="1" parent="1" source="xyFU0oS-6VmlLACNLTeM-2" target="xyFU0oS-6VmlLACNLTeM-4">
          <mxGeometry relative="1" as="geometry" />
        </mxCell>
        <mxCell id="xyFU0oS-6VmlLACNLTeM-7" value="&lt;span style=&quot;text-align: left;&quot;&gt;medico&lt;/span&gt;&lt;div&gt;&lt;span style=&quot;text-align: left;&quot;&gt;sucursal&lt;/span&gt;&lt;/div&gt;&lt;div&gt;&lt;span style=&quot;text-align: left;&quot;&gt;costo&lt;/span&gt;&lt;/div&gt;&lt;div&gt;&lt;span style=&quot;text-align: left;&quot;&gt;concepto&lt;/span&gt;&lt;/div&gt;" style="text;html=1;align=center;verticalAlign=middle;resizable=0;points=[];autosize=1;strokeColor=none;fillColor=none;" vertex="1" parent="1">
          <mxGeometry x="620" y="95" width="70" height="70" as="geometry" />
        </mxCell>
      </root>
    </mxGraphModel>
  </diagram>
</mxfile>
